<svg id="Capa_1" data-name="Capa 1" xmlns="http://www.w3.org/2000/svg" viewBox="0 0 900 878.97"><defs><style>.cls-1,.cls-2{fill:#fff;}.cls-2{stroke:#1d1d1b;stroke-miterlimit:10;}</style></defs><path class="cls-1" d="M238.18,876.23S793.5,974.39,853.09,558.6c0,0,72.92,298-185.8,396.16C667.29,954.76,439.41,1046.61,238.18,876.23Z" transform="translate(-90 -100.52)"/><path class="cls-2" d="M238.18,876.23" transform="translate(-90 -100.52)"/><path class="cls-1" d="M537.32,227.39c147.11-42.47,301.6,3.29,385.55,111.9,107.84,139.52,85,364.24-73.12,498.55,6.82-14.3,93.06-199.42-19.94-416.56C731.21,238.47,564.46,232.11,537.32,227.39Z" transform="translate(-90 -100.52)"/><path class="cls-1" d="M842.41,203.77S287.09,105.61,227.49,521.4c0,0-72.92-298,185.81-396.16C413.3,125.24,641.17,33.39,842.41,203.77Z" transform="translate(-90 -100.52)"/><path class="cls-2" d="M842.41,203.77" transform="translate(-90 -100.52)"/><path class="cls-1" d="M543.26,852.61c-147.11,42.47-301.6-3.29-385.55-111.9-107.83-139.51-85-364.24,73.12-498.55-6.81,14.3-93.06,199.42,19.95,416.56C349.38,841.53,516.12,847.89,543.26,852.61Z" transform="translate(-90 -100.52)"/><path class="cls-1" d="M433,504.41a160.74,160.74,0,0,1-21.31-11,53.7,53.7,0,0,1-15-13.33,28.88,28.88,0,0,1-5.59-17.73,34.58,34.58,0,0,1,2.5-13.1,27.29,27.29,0,0,1,7.62-10.59,36.67,36.67,0,0,1,12.73-6.9,57.3,57.3,0,0,1,17.86-2.5,85.24,85.24,0,0,1,24,3.21,133,133,0,0,1,19.28,7.14q8.34,3.93,14,7.26c3.81,2.23,6.58,3.33,8.33,3.33a5.92,5.92,0,0,0,4.17-1.42,9.42,9.42,0,0,0,2.38-4.53,43.94,43.94,0,0,0,1.19-7.85c.24-3.18.36-7.06.36-11.67,0-4.12-.09-7.58-.24-10.35a45.39,45.39,0,0,0-.84-6.91,19.11,19.11,0,0,0-1.42-4.4,17.3,17.3,0,0,0-3.22-4.05q-2.37-2.37-9.76-5.95a115.33,115.33,0,0,0-16.9-6.43,150.45,150.45,0,0,0-20.47-4.52,145.59,145.59,0,0,0-21.9-1.67A143.71,143.71,0,0,0,390.77,386a94.3,94.3,0,0,0-32.85,16.54,80,80,0,0,0-22.14,27.86q-8.2,16.78-8.21,38.92,0,19.27,5.71,33.09a81.9,81.9,0,0,0,14.88,23.92A97.19,97.19,0,0,0,369,543.69c5.73,3.57,11.63,6.76,17.61,9.76a479.64,479.64,0,0,1,54.77-45.32C438.6,506.91,435.75,505.59,433,504.41Z" transform="translate(-90 -100.52)"/><path class="cls-1" d="M598.67,391.66a6.62,6.62,0,0,0-1.54-4.28,10.91,10.91,0,0,0-5.12-3.1,50.67,50.67,0,0,0-9.52-1.9,131.69,131.69,0,0,0-15.24-.71,129.07,129.07,0,0,0-15,.71,53.64,53.64,0,0,0-9.64,1.9,10.93,10.93,0,0,0-5.23,3.1,6.63,6.63,0,0,0-1.55,4.28v64.4a470.63,470.63,0,0,1,62.84-20.83Z" transform="translate(-90 -100.52)"/><path class="cls-1" d="M744.61,421.57c-18.17-23.91-55.55-44.81-132-40l.81,49.34s1.85-.17,4.95-.28a475.56,475.56,0,0,1,97.29-10.05C725.42,420.61,735,421,744.61,421.57Z" transform="translate(-90 -100.52)"/><path class="cls-1" d="M355.66,690.57a167.31,167.31,0,0,0,24.16,6.31,158.39,158.39,0,0,0,29.64,2.62,154.16,154.16,0,0,0,44.28-6.19,106.78,106.78,0,0,0,36.18-18.45,88.31,88.31,0,0,0,24.52-30.59q9-18.33,9-42.61,0-18.57-5.71-32.26a81.09,81.09,0,0,0-15-23.8,97.55,97.55,0,0,0-19.9-16.47,436.57,436.57,0,0,0-56.57,42.8c4.12,2.1,8,4.26,11.6,6.52a56.86,56.86,0,0,1,14.88,13.33,28.78,28.78,0,0,1,5.71,18,39.48,39.48,0,0,1-3.33,16.43,33,33,0,0,1-9.64,12.38,45.81,45.81,0,0,1-15.36,7.73A70.44,70.44,0,0,1,409.7,649q-17.38,0-30.59-3.93c-5.31-1.57-10.11-3.26-14.52-5a435.48,435.48,0,0,0-27.27,42.26c.29.18.54.34.84.51A104.51,104.51,0,0,0,355.66,690.57Z" transform="translate(-90 -100.52)"/><path class="cls-1" d="M537.38,686.85a10.72,10.72,0,0,0,5.11,3.1,49.32,49.32,0,0,0,9.64,1.9,160.38,160.38,0,0,0,30.36,0A49.11,49.11,0,0,0,592,690a10.76,10.76,0,0,0,5.12-3.1,6.6,6.6,0,0,0,1.54-4.28V477.37a431.9,431.9,0,0,0-62.84,23V682.57A6.61,6.61,0,0,0,537.38,686.85Z" transform="translate(-90 -100.52)"/><path class="cls-1" d="M693.06,461.83a42.78,42.78,0,0,1,2.75,15.5S707.69,548.6,613.36,536v47.51s147.44,25.86,147.44-102a77.59,77.59,0,0,0,0-17.94,439.84,439.84,0,0,0-45.13-2.34Q704.31,461.24,693.06,461.83Z" transform="translate(-90 -100.52)"/><path class="cls-1" d="M234.55,877.2" transform="translate(-90 -100.52)"/><path class="cls-1" d="M238.18,876.23S330.58,965.47,480,977.92c0,0,134.51,13.14,228.91-42.53,0,0,80.91-39.42,117.21-118.95,0,0,34.58-61.54,36-144.18,0,0,3.91-62.72-8.94-113.66C853.09,558.6,848.55,1136.63,238.18,876.23Z" transform="translate(-90 -100.52)"/><path class="cls-1" d="M842.4,203.77S750,114.53,600.62,102.08c0,0-134.5-13.14-228.9,42.53,0,0-80.91,39.42-117.22,118.94,0,0-34.57,61.55-36,144.19,0,0-3.9,62.72,8.94,113.65C227.48,521.39,232-56.63,842.4,203.77Z" transform="translate(-90 -100.52)"/><path class="cls-1" d="M849.75,837.84s128-100.33,138.6-267.27c0,0,19.91-131.79-78.49-247.18,0,0-66.19-80.25-182.76-103.09,0,0-85.51-23.3-189.78,7.09C537.32,227.39,1172.52,234.09,849.75,837.84Z" transform="translate(-90 -100.52)"/><path class="cls-1" d="M230.25,242.17S102.2,342.5,91.65,509.44c0,0-19.91,131.79,78.49,247.19,0,0,66.19,80.24,182.76,103.09,0,0,85.51,23.29,189.78-7.1C542.68,852.62-92.52,845.93,230.25,242.17Z" transform="translate(-90 -100.52)"/><path class="cls-1" d="M582.49,691.85s14.23.86,16.18-9.28h0V477.37l-13.08,4.19V681.25s3.11,7.78-22.82,10.89h19.72" transform="translate(-90 -100.52)"/><path class="cls-1" d="M598.67,435.23V391.66s.54-4.55-6.66-7.38c0,0-10-2.3-11.35-2.3,0,0,12.45,3.11,10.63,8v47.2Z" transform="translate(-90 -100.52)"/><path class="cls-1" d="M337.32,682.32s47.59,26,106,13.93c0,0,45.45-8.34,66.29-43,0,0,27.52-44.19,5-91.72,0,0-12.12-19.45-31.7-32.45l-10,7s30,16.68,35,46.28c0,0,22.09,45.87-32.52,88.81,0,0-15.85,18.76-68.8,21.26C406.59,692.49,356.44,691.75,337.32,682.32Z" transform="translate(-90 -100.52)"/><path class="cls-1" d="M613.36,583.53s65.07,10.93,107.25-17.42c0,0,30.43-17.29,37-55.33,0,0,6.11-34.92,3.23-47.2,0,0-8.76-1.55-11.53-.86,0,0,14.18,86.1-58.78,105.46,0,0-24.9,14.18-77.11,7.61Z" transform="translate(-90 -100.52)"/><path class="cls-1" d="M744.61,421.57s-15.87-21.64-43.71-30.5c0,0-20-8.1-50.12-9.62,0,0-32.7-1.22-38.12.15v11.55S697,379.9,744.61,421.57Z" transform="translate(-90 -100.52)"/><path class="cls-1" d="M441.37,508.13S402.58,494.58,393.89,476c0,0-13.52-28,15.64-42.69,0,0,15.63-8.61,46.35-.83,0,0,24.15,7.31,33.33,14.4,0,0,11.5,9.11,14.88-2.62a77.84,77.84,0,0,0,1.19-7.85s-3,10.42-6.31,5.4c0,0-30.16-17.74-54.46-19.5-4.61-.33-59.89-6.19-59.12,40,0,0-1.74,18,14.08,32.1,12.7,11.36,35.76,17.74,35.76,17.74Z" transform="translate(-90 -100.52)"/></svg>